<svg width="45" height="43" viewBox="0 0 45 43" fill="none" xmlns="http://www.w3.org/2000/svg">
<path d="M33.123 1.62768C33.3019 0.683482 34.1271 0 35.0881 0H42.0169C43.2707 0 44.2154 1.14041 43.982 2.37232L36.8945 41.3723C36.7156 42.3165 35.8904 43 34.9295 43H28.0006C26.7468 43 25.8022 41.8596 26.0356 40.6277L33.123 1.62768Z" fill="#E4FAFB"/>
<path d="M20.1231 1.62768C20.302 0.683482 21.1271 0 22.0881 0H29.017C30.2708 0 31.2154 1.14041 30.982 2.37232L23.8945 41.3723C23.7156 42.3165 22.8904 43 21.9295 43H15.0006C13.7468 43 12.8022 41.8596 13.0356 40.6277L20.1231 1.62768Z" fill="#39404A"/>
<path d="M7.12308 1.62768C7.30198 0.683482 8.12711 0 9.08811 0H16.0169C17.2708 0 18.2154 1.14041 17.982 2.37232L10.8945 41.3723C10.7156 42.3165 9.89045 43 8.92945 43H2.00062C0.746792 43 -0.197833 41.8596 0.035581 40.6277L7.12308 1.62768Z" fill="#1D2025"/>
</svg>
